<?xml version="1.0" standalone="no"?>
<!DOCTYPE svg PUBLIC "-//W3C//DTD SVG 20010904//EN"
 "http://www.w3.org/TR/2001/REC-SVG-20010904/DTD/svg10.dtd">
<svg version="1.0" xmlns="http://www.w3.org/2000/svg"
 width="577.000000pt" height="420.000000pt" viewBox="0 0 577.000000 420.000000"
 preserveAspectRatio="xMidYMid meet">

<g transform="translate(0.000000,420.000000) scale(0.100000,-0.100000)"
fill="#000000" stroke="none">
<path d="M0 2100 l0 -2100 2885 0 2885 0 0 2100 0 2100 -1137 -1 c-826 0
-1132 -3 -1115 -11 32 -16 28 -22 -29 -35 -72 -18 -224 -92 -294 -146 -33 -25
-73 -66 -89 -91 -16 -25 -30 -46 -32 -46 -11 0 17 47 56 93 60 72 176 149 275
183 44 15 82 29 85 31 21 18 -77 23 -447 23 l-423 0 -26 -42 c-15 -24 -43 -68
-64 -98 -20 -30 -69 -125 -109 -210 -39 -85 -77 -164 -83 -175 -19 -33 -127
-369 -137 -426 -5 -30 -17 -81 -25 -114 -19 -73 -20 -115 -3 -116 87 -4 149
-9 155 -13 4 -2 13 -2 18 2 15 9 44 99 44 133 0 15 6 29 13 32 8 3 30 38 49
79 33 69 64 119 176 282 26 39 86 111 135 160 157 164 150 158 160 132 4 -9
-9 -27 -31 -46 -20 -17 -41 -34 -47 -39 -18 -16 -132 -155 -197 -242 -35 -48
-93 -144 -128 -214 -61 -120 -63 -128 -49 -153 12 -22 69 -65 118 -89 19 -9
57 37 98 119 18 35 40 70 50 78 10 9 38 40 63 70 65 78 160 172 160 157 0 -6
-22 -35 -48 -62 -64 -69 -151 -185 -158 -213 -4 -13 -17 -34 -29 -47 -27 -26
-75 -117 -75 -140 0 -38 -71 -19 -84 22 -8 24 -86 74 -110 71 -13 -2 -25 -19
-37 -55 -10 -29 -15 -53 -12 -53 3 0 0 -6 -6 -14 -18 -21 -69 -30 -87 -16 -8
7 -45 15 -82 18 -53 3 -70 1 -80 -11 -7 -8 -21 -69 -31 -134 -10 -66 -24 -130
-31 -143 -42 -79 -52 -233 -22 -342 11 -36 17 -79 14 -96 -9 -64 16 -201 49
-263 46 -86 129 -155 141 -118 4 11 -6 102 -17 155 -4 20 -3 34 4 39 17 10 63
-23 59 -43 -1 -9 1 -23 6 -31 5 -8 8 -34 7 -58 -1 -45 12 -83 30 -83 5 0 21
11 34 24 19 19 23 30 17 53 -13 48 -4 73 26 73 46 0 56 -13 49 -64 -4 -26 -3
-46 2 -46 18 0 40 31 47 66 6 35 8 36 45 32 22 -2 39 0 39 4 0 5 11 8 25 8 20
0 25 -5 25 -24 0 -68 75 -286 98 -286 10 0 32 52 32 74 0 7 -16 36 -35 66 -20
30 -44 82 -54 115 l-19 60 66 32 c37 18 81 44 98 58 l32 26 6 -35 c4 -20 11
-38 16 -41 18 -11 22 24 7 54 -14 29 -13 31 25 83 23 29 47 68 55 86 17 41 27
35 47 -26 11 -35 16 -100 17 -262 1 -118 0 -219 -1 -225 -2 -5 0 -20 4 -33 6
-17 3 -29 -9 -42 -13 -14 -16 -30 -12 -59 3 -22 0 -44 -6 -50 -13 -13 -47
-118 -47 -148 0 -12 5 -25 12 -29 7 -5 4 -10 -10 -15 -12 -5 -22 -15 -22 -23
0 -31 79 -81 98 -62 4 4 -1 21 -10 37 -14 23 -14 29 -3 29 7 0 20 7 28 14 18
19 33 162 19 179 -7 8 -6 18 4 31 16 23 19 77 4 92 -7 7 -6 20 5 40 17 33 19
90 5 143 -5 20 -14 113 -19 206 -7 124 -16 196 -34 265 -18 69 -23 106 -17
135 7 39 7 39 17 15 13 -31 45 -59 104 -93 51 -29 129 -105 171 -168 34 -51
48 -96 53 -174 l5 -60 -14 60 c-8 33 -33 99 -56 147 -42 90 -89 141 -169 186
-63 36 -67 24 -37 -139 28 -154 46 -329 46 -446 0 -64 3 -74 22 -84 l21 -11
-22 -17 c-30 -23 -40 -91 -17 -113 20 -20 20 -28 2 -28 -14 0 -27 -43 -41
-143 -6 -36 -3 -53 10 -73 9 -15 12 -23 6 -20 -6 4 -22 -4 -35 -18 -13 -14
-28 -26 -35 -26 -6 0 -11 -3 -11 -7 -1 -5 -15 -24 -31 -43 l-31 -35 16 32 16
33 -39 26 c-22 14 -47 24 -57 22 -10 -1 -30 -25 -46 -53 -54 -95 -54 -92 -29
-126 31 -42 13 -83 -19 -44 -24 29 -56 17 -99 -36 -47 -59 -47 -59 27 -140 44
-49 50 -60 54 -111 2 -31 1 -55 -4 -52 -4 3 -8 12 -8 20 0 18 -150 184 -166
184 -22 0 -166 -73 -171 -87 -3 -8 0 -26 6 -40 23 -49 131 -192 151 -198 11
-4 26 -21 34 -38 29 -70 262 -255 457 -364 96 -53 109 -63 83 -63 -37 0 -210
85 -304 149 -74 51 -270 219 -270 232 0 5 -11 14 -25 19 -14 5 -28 18 -32 27
-4 10 -39 63 -79 118 -41 55 -80 109 -88 121 -12 17 -32 22 -125 32 -218 23
-400 105 -580 263 -56 50 -45 50 22 1 81 -60 217 -142 269 -163 121 -48 335
-78 352 -50 6 10 -149 337 -164 346 -6 3 -10 19 -10 35 0 16 -16 84 -35 152
-20 68 -44 160 -54 206 -11 46 -26 91 -35 101 -19 21 -21 42 -5 58 18 18 -3
109 -46 204 -46 102 -68 213 -60 302 6 67 35 168 55 192 25 31 33 105 11 105
-4 0 -22 -14 -40 -32 -65 -64 -111 -192 -111 -314 -1 -65 -2 -68 -15 -44 -19
32 -18 99 0 178 24 100 63 171 130 238 l62 61 17 126 c17 120 16 154 -5 142
-5 -4 -14 -3 -20 0 -6 4 4 20 25 39 31 28 37 42 56 131 12 55 31 129 42 165
46 150 88 271 116 331 16 35 33 75 37 89 4 14 28 66 53 115 42 85 70 132 183
308 l47 72 -1117 3 c-614 1 -1121 0 -1127 -2 -15 -6 -119 -191 -159 -284 -29
-65 -34 -72 -43 -55 -8 15 -4 34 21 89 32 70 94 184 123 229 l16 25 -151 0
-151 0 0 -2100z m4493 2043 c-44 -6 -41 -16 7 -38 22 -10 44 -23 50 -30 5 -6
-20 4 -56 22 -37 18 -74 34 -83 34 -25 2 50 16 84 16 30 0 29 0 -2 -4z m-433
-65 c0 -14 -14 -8 -45 17 l-30 24 37 -17 c21 -9 37 -20 38 -24z m541 -45 c13
-16 12 -17 -3 -4 -17 13 -22 21 -14 21 2 0 10 -8 17 -17z m-1111 -103 c-8 -5
-19 -10 -25 -10 -5 0 -3 5 5 10 8 5 20 10 25 10 6 0 3 -5 -5 -10z m613 -17
c-13 -2 -33 -2 -45 0 -13 2 -3 4 22 4 25 0 35 -2 23 -4z m-806 -49 c-3 -3 -12
-4 -19 -1 -8 3 -5 6 6 6 11 1 17 -2 13 -5z m550 -8 c-2 -5 -15 -10 -31 -12
-21 -2 -25 0 -17 9 12 15 53 17 48 3z m-597 -6 c-8 -5 -19 -10 -25 -10 -5 0
-3 5 5 10 8 5 20 10 25 10 6 0 3 -5 -5 -10z m630 0 c0 -5 -2 -10 -4 -10 -3 0
-8 5 -11 10 -3 6 -1 10 4 10 6 0 11 -4 11 -10z m421 -10 c24 -11 37 -19 29
-19 -15 0 -91 38 -79 39 4 0 26 -9 50 -20z m-1091 -4 c0 -3 -4 -8 -10 -11 -5
-3 -10 -1 -10 4 0 6 5 11 10 11 6 0 10 -2 10 -4z m-77 -61 c-3 -9 -8 -14 -10
-11 -3 3 -2 9 2 15 9 16 15 13 8 -4z m1392 -25 c3 -6 -1 -7 -9 -4 -18 7 -21
14 -7 14 6 0 13 -4 16 -10z m-1403 -29 c-3 -22 2 -35 22 -52 14 -12 26 -26 26
-30 0 -11 -123 -100 -129 -93 -6 6 4 15 69 65 34 26 34 26 17 52 -17 27 -23
68 -10 80 10 10 10 9 5 -22z m-75 -7 c2 -13 1 -15 -4 -4 -3 8 -11 19 -17 23
-7 6 -6 7 4 4 8 -2 16 -12 17 -23z m153 22 c0 -3 -4 -8 -10 -11 -5 -3 -10 -1
-10 4 0 6 5 11 10 11 6 0 10 -2 10 -4z m-100 -50 c0 -6 -7 -1 -15 10 -8 10
-15 23 -15 28 0 6 7 1 15 -10 8 -10 15 -23 15 -28z m93 -1 c-3 -9 -8 -14 -10
-11 -3 3 -2 9 2 15 9 16 15 13 8 -4z m43 -30 c-18 -13 -17 -14 8 -21 39 -10
31 -22 -10 -15 -21 3 -36 9 -35 14 0 4 1 11 1 16 0 5 8 12 18 14 32 9 37 6 18
-8z m804 -19 c0 -3 -4 -8 -10 -11 -5 -3 -10 -1 -10 4 0 6 5 11 10 11 6 0 10
-2 10 -4z m-585 -346 c4 -6 -7 -10 -27 -9 -31 1 -32 1 -8 9 14 4 26 8 27 9 1
1 5 -3 8 -9z m-1875 -50 c0 -5 -5 -10 -11 -10 -5 0 -7 5 -4 10 3 6 8 10 11 10
2 0 4 -4 4 -10z m1620 -4 c0 -18 -30 -30 -43 -17 -5 5 -6 14 -3 20 10 16 46
13 46 -3z m-70 -25 c0 -4 -27 -25 -61 -46 -33 -20 -92 -68 -131 -105 -63 -60
-70 -71 -66 -99 4 -25 2 -28 -9 -19 -10 8 -18 7 -32 -6 -10 -9 -25 -14 -35
-10 -21 8 -20 17 3 38 11 10 22 28 25 42 4 13 11 24 16 24 5 0 30 18 56 41
120 104 234 172 234 140z m-1520 -66 c7 -9 10 -18 6 -22 -3 -3 -6 -1 -6 6 0 7
-4 9 -10 6 -5 -3 -10 -1 -10 4 0 22 -29 10 -38 -16 -9 -23 -11 -24 -11 -7 -2
40 44 59 69 29z m20 -45 c0 -5 -2 -10 -4 -10 -3 0 -8 5 -11 10 -3 6 -1 10 4
10 6 0 11 -4 11 -10z m15 -67 c-8 -7 -12 -20 -9 -27 6 -15 -60 -99 -70 -89 -3
4 -6 2 -6 -4 0 -6 -9 -13 -20 -16 -24 -6 -24 -7 -6 29 22 45 30 78 18 70 -7
-4 -9 1 -7 14 7 38 -20 20 -38 -25 -11 -25 -23 -42 -29 -39 -5 3 -3 13 7 24 9
10 15 21 13 26 -5 15 27 53 43 51 28 -5 39 -19 39 -50 l0 -32 19 24 c10 14 16
33 13 44 -3 14 -1 18 6 13 7 -4 15 0 18 9 5 13 9 14 14 4 5 -7 2 -18 -5 -26z
m1643 15 c20 -20 14 -30 -15 -26 -32 4 -46 38 -16 38 11 0 24 -5 31 -12z
m-118 -16 c0 -4 -30 -22 -67 -39 -88 -41 -164 -108 -166 -145 -1 -16 -3 -28
-4 -28 -1 0 -14 11 -28 24 -20 19 -24 30 -19 50 3 14 11 23 16 20 5 -4 42 16
81 44 84 58 187 99 187 74z m225 -12 c8 -13 -5 -13 -25 0 -13 8 -13 10 2 10 9
0 20 -4 23 -10z m-1922 -120 c-5 -25 -3 -29 11 -24 9 3 16 16 17 28 0 20 1 20
10 -3 11 -28 -4 -44 -34 -37 -9 2 -22 -3 -27 -12 -8 -14 -9 -12 -6 9 4 23 26
69 33 69 1 0 0 -14 -4 -30z m1007 -13 c0 -2 -15 -16 -32 -33 l-33 -29 29 33
c28 30 36 37 36 29z m40 -85 c-27 -28 -50 -53 -50 -56 0 -5 66 -36 76 -36 2 0
8 10 15 21 9 17 8 24 -2 31 -10 7 -9 8 5 4 14 -5 30 3 54 26 19 18 31 26 27
18 -5 -8 -17 -21 -28 -29 -11 -8 -17 -21 -14 -31 3 -12 0 -17 -8 -13 -8 2 -19
-5 -25 -18 -11 -19 -9 -24 16 -45 36 -29 38 -29 52 0 8 18 7 27 -6 42 -16 17
-16 17 1 4 15 -11 20 -11 34 3 14 14 14 18 2 34 -13 16 -12 17 3 4 10 -7 28
-11 40 -8 20 5 21 4 6 -6 -25 -20 -4 -51 29 -42 23 5 24 5 9 -10 -14 -15 -14
-19 0 -48 13 -29 13 -30 -1 -13 -8 11 -15 24 -15 29 0 4 -4 5 -10 2 -16 -10
-12 -30 15 -76 22 -39 25 -41 32 -23 6 16 13 19 28 13 11 -4 14 -8 8 -8 -7 -1
-13 -6 -13 -12 0 -5 4 -8 9 -5 5 4 17 3 28 -1 16 -6 15 -8 -7 -13 -19 -5 -25
-12 -23 -31 1 -14 0 -17 -3 -6 -7 24 -26 21 -22 -3 2 -12 6 -19 9 -18 9 4 48
-32 61 -56 10 -18 8 -18 -17 2 -39 31 -47 28 -43 -20 2 -24 8 -42 14 -41 12 2
3 -74 -15 -121 -18 -46 -22 -25 -5 29 8 27 13 54 10 60 -2 5 -9 -12 -16 -38
-9 -32 -16 -44 -21 -36 -6 11 -9 10 -14 -3 -4 -9 -13 -19 -21 -22 -8 -3 -12
-2 -9 3 3 5 1 12 -5 16 -5 3 -10 3 -10 -2 0 -4 -3 -18 -6 -30 -5 -19 -2 -23
18 -23 16 0 29 8 36 23 10 20 11 19 5 -8 -6 -27 -5 -29 10 -16 23 19 21 1 -4
-29 -17 -21 -19 -22 -15 -5 5 16 0 20 -24 22 -17 1 -30 -2 -30 -7 0 -5 -7 -7
-15 -4 -14 6 -17 1 -19 -36 -2 -26 -36 -23 -57 4 -11 15 -25 23 -31 20 -7 -4
-8 -2 -4 4 4 7 3 19 -2 28 -8 15 -11 14 -25 -7 -16 -22 -16 -24 10 -51 15 -15
34 -28 42 -28 11 0 12 -3 3 -12 -9 -9 -22 -1 -56 35 -42 45 -66 58 -66 37 0
-5 5 -10 10 -10 6 0 10 -6 10 -14 0 -17 80 -86 101 -87 10 0 10 -2 2 -6 -14
-5 -67 29 -96 62 -10 11 -30 33 -45 50 -14 16 -27 37 -27 47 -1 10 -15 33 -31
50 -16 18 -21 26 -11 19 21 -17 21 -13 0 57 l-17 57 -7 -40 -6 -40 -2 42 c0
23 4 45 9 48 13 8 13 65 0 65 -6 0 -5 8 2 20 17 27 -2 45 -38 36 l-27 -7 7
-82 c8 -97 23 -151 47 -173 10 -9 15 -22 12 -30 -3 -8 0 -15 6 -15 6 -1 16 -2
23 -3 6 0 13 -7 16 -14 2 -7 -2 -10 -12 -6 -9 3 -16 3 -16 -1 0 -12 50 -78 79
-103 18 -17 20 -21 6 -14 -33 17 -81 75 -121 147 -6 11 -22 38 -35 59 -13 22
-17 36 -9 31 10 -6 12 -4 7 9 -4 10 -10 43 -14 74 -4 41 -8 51 -14 37 -7 -20
-8 -20 -8 0 -1 11 4 37 10 58 12 45 5 59 -17 31 -15 -18 -15 -18 -4 3 5 12 14
24 19 27 5 3 19 38 31 78 21 71 86 186 97 174 3 -3 -1 -14 -9 -23 -24 -28 -78
-145 -78 -170 0 -13 6 -23 14 -23 8 0 20 -2 28 -5 12 -5 35 37 76 137 2 4 -9
9 -25 9 l-28 2 29 4 c20 3 49 25 88 65 32 34 61 59 63 56 3 -3 -17 -28 -45
-56z m-1753 -24 c-3 -8 -6 -5 -6 6 -1 11 2 17 5 13 3 -3 4 -12 1 -19z m2078
-86 c-3 -3 -11 0 -18 7 -9 10 -8 11 6 5 10 -3 15 -9 12 -12z m560 -12 c14 -16
16 -23 7 -32 -9 -9 -16 -7 -32 7 -11 10 -20 24 -20 32 0 19 24 16 45 -7z
m-365 -45 c0 -7 7 -15 15 -19 8 -3 12 -12 9 -21 -10 -25 -19 -17 -30 25 -6 22
-7 37 -3 34 5 -3 9 -11 9 -19z m-1705 -115 c3 -5 1 -10 -4 -10 -6 0 -11 5 -11
10 0 6 2 10 4 10 3 0 8 -4 11 -10z m2103 -30 c23 -35 29 -60 12 -60 -11 0 -60
74 -60 91 0 19 24 4 48 -31z m462 18 c0 -19 -2 -20 -10 -8 -13 19 -13 30 0 30
6 0 10 -10 10 -22z m-3049 -54 c-5 -21 -9 -30 -10 -19 -1 24 10 67 15 62 3 -2
0 -22 -5 -43z m146 -36 c-3 -7 -5 -2 -5 12 0 14 2 19 5 13 2 -7 2 -19 0 -25z
m359 -4 c-3 -8 -1 -14 4 -14 6 0 10 6 11 13 1 18 49 -84 50 -108 1 -11 5 0 10
24 14 74 25 65 27 -24 2 -70 -1 -85 -13 -85 -18 0 -20 -26 -2 -33 6 -2 9 -8 5
-12 -4 -4 -14 -2 -22 4 -11 10 -17 8 -30 -10 -8 -12 -13 -26 -10 -31 8 -12 -9
-9 -28 6 -14 10 -18 28 -18 76 0 77 9 76 11 -2 2 -52 3 -55 21 -45 10 7 16 18
13 24 -2 7 0 13 5 13 6 0 10 32 10 71 0 44 -4 68 -10 64 -6 -4 -10 5 -10 20 0
17 -5 25 -12 23 -18 -6 -39 18 -32 36 3 9 10 13 16 10 5 -3 7 -12 4 -20z m79
16 c3 -5 1 -10 -4 -10 -6 0 -11 5 -11 10 0 6 2 10 4 10 3 0 8 -4 11 -10z
m1382 -37 c-3 -10 -5 -4 -5 12 0 17 2 24 5 18 2 -7 2 -21 0 -30z m-1975 -78
c3 -49 2 -79 -2 -65 -8 25 -13 167 -6 159 2 -2 6 -44 8 -94z m182 -30 c5 -60
5 -59 -9 15 -15 85 -18 119 -4 75 5 -16 11 -57 13 -90z m1253 83 c-3 -7 -5 -2
-5 12 0 14 2 19 5 13 2 -7 2 -19 0 -25z m-1920 0 c-3 -8 -6 -5 -6 6 -1 11 2
17 5 13 3 -3 4 -12 1 -19z m1003 -50 c0 -16 -4 -28 -10 -28 -5 0 -10 19 -10
43 0 31 3 38 10 27 5 -8 10 -27 10 -42z m2825 42 c3 -5 1 -10 -4 -10 -6 0 -11
5 -11 10 0 6 2 10 4 10 3 0 8 -4 11 -10z m243 -36 c-4 -3 -12 5 -18 18 -12 22
-12 22 6 6 10 -10 15 -20 12 -24z m-3041 -16 c-3 -8 -6 -5 -6 6 -1 11 2 17 5
13 3 -3 4 -12 1 -19z m1474 -31 c-10 -9 -11 -8 -5 6 3 10 9 15 12 12 3 -3 0
-11 -7 -18z m1145 -13 c-13 -14 -27 2 -19 22 4 10 8 10 17 1 9 -8 10 -14 2
-23z m44 -5 c0 -11 4 -17 10 -14 6 4 7 -2 1 -17 -5 -15 -5 -31 0 -41 7 -11 6
-17 0 -17 -17 0 -9 -183 9 -197 12 -10 12 -12 1 -13 -8 0 -20 8 -28 18 -13 15
-14 13 -9 -23 l5 -40 -13 40 c-10 29 -10 42 -2 47 11 8 6 10 -24 12 -12 1 -15
17 -15 84 0 46 3 86 8 89 7 4 11 -16 10 -46 -1 -9 2 -10 9 -3 5 5 8 18 6 28
-2 10 4 26 14 36 13 13 14 24 8 52 -4 21 -4 34 1 30 5 -3 9 -14 9 -25z m426
-64 c24 -102 24 -281 0 -340 -9 -22 -14 -29 -10 -15 15 61 16 238 0 326 -8 50
-19 100 -22 110 -5 13 -4 16 4 9 5 -5 18 -46 28 -90z m-3859 63 c-3 -8 -6 -5
-6 6 -1 11 2 17 5 13 3 -3 4 -12 1 -19z m3410 -35 c-3 -10 -5 -4 -5 12 0 17 2
24 5 18 2 -7 2 -21 0 -30z m-2650 5 c-3 -8 -6 -5 -6 6 -1 11 2 17 5 13 3 -3 4
-12 1 -19z m1463 -22 c0 -2 -8 -10 -17 -17 -16 -13 -17 -12 -4 4 13 16 21 21
21 13z m-1421 -73 c-1 -33 -2 -35 -8 -13 -4 14 -6 31 -3 38 8 22 12 13 11 -25z
m1308 31 c-3 -3 -12 -4 -19 -1 -8 3 -5 6 6 6 11 1 17 -2 13 -5z m-880 -36 c-3
-8 -6 -5 -6 6 -1 11 2 17 5 13 3 -3 4 -12 1 -19z m-936 -40 c12 -24 33 -59 47
-78 20 -27 21 -31 5 -17 -21 18 -89 137 -79 137 3 0 15 -19 27 -42z m434 32
c3 -5 1 -10 -4 -10 -6 0 -11 5 -11 10 0 6 2 10 4 10 3 0 8 -4 11 -10z m1349
-2 c-5 -8 -2 -9 9 -5 9 3 19 2 22 -3 4 -6 -9 -9 -29 -8 -36 3 -46 12 -23 21
21 9 28 7 21 -5z m1543 -20 c-3 -7 -5 -2 -5 12 0 14 2 19 5 13 2 -7 2 -19 0
-25z m-2850 -45 c-3 -10 -5 -4 -5 12 0 17 2 24 5 18 2 -7 2 -21 0 -30z m1244
19 c-7 -2 -18 1 -23 6 -8 8 -4 9 13 5 13 -4 18 -8 10 -11z m-1314 -99 c-3 -10
-5 -2 -5 17 0 19 2 27 5 18 2 -10 2 -26 0 -35z m580 25 c-3 -8 -6 -5 -6 6 -1
11 2 17 5 13 3 -3 4 -12 1 -19z m-1752 -170 c69 -240 192 -544 261 -643 20
-28 17 -39 -5 -18 -22 20 -104 164 -116 203 -4 14 -11 27 -14 30 -34 26 -210
527 -195 552 17 27 34 -4 69 -124z m3979 98 c-6 -16 -24 -23 -24 -8 0 10 22
33 27 28 2 -2 1 -11 -3 -20z m-38 -63 c-3 -4 -6 -1 -6 6 0 7 -4 9 -10 6 -5 -3
-10 -2 -10 4 0 5 -3 18 -7 28 -3 10 3 7 17 -10 12 -15 20 -31 16 -34z m191
-20 c-3 -10 -5 -4 -5 12 0 17 2 24 5 18 2 -7 2 -21 0 -30z m-902 -22 c-6 -21
-82 -101 -95 -101 -4 0 12 20 36 45 23 25 46 54 49 66 4 11 9 18 12 16 3 -3 2
-15 -2 -26z m-2488 -13 c6 -7 18 -38 28 -68 51 -158 154 -383 250 -545 25 -42
45 -79 45 -82 0 -4 31 -47 69 -97 70 -92 160 -190 219 -238 17 -15 28 -29 23
-32 -12 -8 -195 179 -260 264 -173 225 -286 441 -370 703 -17 53 -31 99 -31
102 0 10 18 5 27 -7z m2659 -65 c-8 -16 -39 -61 -69 -102 -44 -60 -60 -75 -83
-76 -16 -1 -51 -5 -79 -9 l-50 -7 55 24 c30 13 71 40 89 58 19 19 44 36 55 39
12 3 37 27 56 53 40 54 47 59 26 20z m515 -121 c-15 -68 -48 -147 -60 -145 -6
2 -8 -4 -5 -12 8 -21 -47 -104 -109 -162 -62 -59 -135 -109 -144 -99 -4 4 -1
11 7 16 114 70 226 209 259 320 7 25 17 55 22 68 5 13 9 35 9 51 0 34 11 47
23 26 5 -9 4 -35 -2 -63z m-2568 -284 c39 -54 42 -65 8 -33 -37 34 -57 65 -42
65 6 0 21 -15 34 -32z m1706 -78 c8 0 11 6 7 15 -4 12 -2 13 13 5 11 -5 21 -6
23 -1 2 5 10 2 18 -7 13 -14 12 -15 -4 -9 -15 6 -17 3 -13 -12 6 -25 -2 -36
-37 -48 -17 -5 -32 -15 -34 -21 -6 -19 39 -14 55 6 8 9 5 -1 -8 -23 -24 -43
-49 -74 -30 -38 16 32 14 36 -14 29 -18 -5 -27 -2 -32 9 -3 9 -12 14 -19 11
-21 -8 14 42 38 55 19 10 19 12 2 37 -17 27 -17 27 3 10 11 -10 25 -18 32 -18z
m-79 -50 c0 -10 -4 -22 -10 -25 -5 -3 -10 -22 -10 -41 0 -19 4 -33 9 -30 5 3
7 16 5 29 -2 12 -1 15 2 7 4 -8 11 -23 16 -34 7 -13 7 -16 -1 -12 -6 4 -11 1
-11 -6 0 -13 52 -48 72 -48 6 0 8 7 4 15 -3 9 0 15 9 15 13 0 31 36 27 53 -1
4 3 7 8 7 6 0 10 9 10 20 0 11 5 20 10 20 15 0 12 -10 -20 -73 -20 -39 -25
-59 -17 -62 71 -22 73 -24 22 -22 -27 1 -56 8 -63 15 -7 6 -21 12 -30 12 -21
0 -62 59 -62 88 0 12 -4 22 -9 22 -11 0 -26 -39 -23 -60 2 -9 -2 -8 -9 5 -12
19 -12 19 -20 0 -16 -42 -7 -201 11 -190 5 3 6 -3 3 -14 -6 -25 25 -84 41 -78
9 4 12 -2 9 -17 -3 -16 9 -35 51 -74 65 -61 121 -89 220 -108 l71 -14 -65 6
c-125 10 -268 106 -314 212 -11 23 -23 42 -27 42 -9 0 -9 -2 -14 142 -2 60 1
110 6 113 5 4 9 16 10 28 1 20 2 20 9 -3 7 -24 8 -22 29 24 12 27 19 51 16 54
-3 3 -5 0 -5 -6 0 -7 -5 -12 -10 -12 -7 0 -7 7 0 20 9 16 15 18 30 10 11 -6
20 -19 20 -30z m146 -18 c-11 -10 -14 3 -8 33 l7 30 3 -28 c2 -16 1 -31 -2
-35z m1044 44 c0 -16 -40 -69 -47 -62 -5 5 35 76 43 76 2 0 4 -6 4 -14z m-580
-33 c-1 -20 -19 -35 -35 -29 -14 5 -15 9 -5 21 13 16 40 21 40 8z m-359 -70
c-9 -16 -10 -16 -11 -1 0 9 3 25 7 35 7 16 8 17 11 1 2 -10 -1 -25 -7 -35z
m876 22 c0 -8 -4 -12 -9 -9 -5 3 -6 10 -3 15 9 13 12 11 12 -6z m-1243 -10 c3
-8 1 -15 -4 -15 -6 0 -10 7 -10 15 0 8 2 15 4 15 2 0 6 -7 10 -15z m176 -55
c0 -5 -8 -10 -17 -10 -15 0 -16 2 -3 10 19 12 20 12 20 0z m170 -14 c0 -3 -4
-8 -10 -11 -5 -3 -10 -1 -10 4 0 6 5 11 10 11 6 0 10 -2 10 -4z m1638 -35 c-7
-12 -16 -21 -21 -21 -4 0 0 11 9 25 20 30 31 26 12 -4z m-1923 -1 c-3 -5 -1
-19 5 -31 11 -20 12 -20 33 -2 l22 18 -19 -22 c-17 -21 -17 -25 -3 -46 13 -20
73 -56 132 -78 27 -10 159 -36 221 -43 60 -7 135 13 173 46 l26 23 -24 -27
c-39 -45 -108 -62 -220 -55 -53 3 -118 13 -145 21 -26 9 -52 13 -57 10 -5 -3
-9 -1 -9 3 0 5 -14 17 -32 27 -30 19 -31 19 -45 0 -13 -18 -14 -17 -8 6 4 19
0 31 -15 45 -36 32 -64 115 -39 115 5 0 7 -4 4 -10z m260 -20 c-3 -5 -10 -10
-16 -10 -5 0 -9 5 -9 10 0 6 7 10 16 10 8 0 12 -4 9 -10z m231 1 c-8 -12 -46
-21 -46 -11 0 5 10 11 23 13 12 2 23 5 25 6 2 0 1 -3 -2 -8z m533 -26 c-24
-20 -82 -54 -129 -76 -47 -23 -93 -45 -102 -50 -24 -12 -28 -11 -28 5 0 8 22
21 51 30 28 10 80 35 116 57 36 21 69 39 73 39 4 0 13 7 20 15 7 8 19 15 28
15 8 0 -5 -16 -29 -35z m-691 18 c-10 -2 -28 -2 -40 0 -13 2 -5 4 17 4 22 1
32 -1 23 -4z m85 -10 c-13 -2 -33 -2 -45 0 -13 2 -3 4 22 4 25 0 35 -2 23 -4z
m1467 -1 c0 -12 -134 -147 -206 -209 -80 -68 -196 -143 -221 -143 -9 0 43 43
98 80 87 59 197 150 258 213 68 70 71 72 71 59z m-1960 -163 c0 -5 -12 -8 -27
-8 -17 1 -21 3 -10 6 9 2 17 9 17 14 0 6 5 7 10 4 6 -3 10 -10 10 -16z m-1680
-49 c5 0 10 5 10 11 0 6 8 1 19 -12 10 -13 16 -30 13 -38 -4 -12 -8 -9 -16 9
-6 14 -19 25 -30 25 -10 0 -30 16 -44 35 l-25 35 32 -32 c17 -18 35 -33 41
-33z m1704 -36 c3 -8 2 -12 -4 -9 -6 3 -10 10 -10 16 0 14 7 11 14 -7z m26
-45 c0 -6 -4 -7 -10 -4 -5 3 -10 11 -10 16 0 6 5 7 10 4 6 -3 10 -11 10 -16z
m45 -59 c3 -5 1 -10 -4 -10 -6 0 -11 5 -11 10 0 6 2 10 4 10 3 0 8 -4 11 -10z
m450 -15 c-16 -8 -39 -14 -50 -14 -11 0 -2 6 20 14 52 17 68 17 30 0z m-2690
-25 c10 -11 16 -20 13 -20 -3 0 -13 9 -23 20 -10 11 -16 20 -13 20 3 0 13 -9
23 -20z m159 -136 c43 -32 103 -76 134 -96 58 -40 62 -49 9 -22 -69 35 -277
198 -277 217 0 6 12 -1 28 -15 15 -14 62 -52 106 -84z m416 86 c0 -5 -2 -10
-4 -10 -3 0 -8 5 -11 10 -3 6 -1 10 4 10 6 0 11 -4 11 -10z m1795 -10 c3 -6
-1 -7 -9 -4 -18 7 -21 14 -7 14 6 0 13 -4 16 -10z m-80 -72 c-11 -6 -28 -20
-37 -32 -10 -11 -18 -16 -18 -10 0 14 22 41 40 47 27 10 36 7 15 -5z m918 -5
c-7 -2 -19 -2 -25 0 -7 3 -2 5 12 5 14 0 19 -2 13 -5z m1117 -34 c-91 -79
-285 -194 -399 -235 -36 -13 -68 -24 -70 -24 -10 0 118 74 199 115 47 24 132
73 190 109 58 36 107 65 110 65 3 0 -11 -14 -30 -30z m-1221 16 c-9 -9 -195
-35 -251 -35 -58 0 -73 10 -40 29 16 10 300 16 291 6z m-795 -54 c-10 -10 -21
-16 -24 -14 -3 3 4 11 14 19 28 20 33 17 10 -5z m36 -21 c-8 -5 -19 -10 -25
-10 -5 0 -3 5 5 10 8 5 20 10 25 10 6 0 3 -5 -5 -10z m1480 -215 c-7 -8 -27
-15 -44 -14 -31 1 -31 1 9 14 22 8 42 14 44 14 2 1 -2 -6 -9 -14z"/>
<path d="M2435 2678 c-38 -82 -41 -112 -14 -147 31 -38 36 -38 44 2 4 17 20
61 36 96 16 35 29 65 29 67 0 4 -57 34 -65 34 -3 0 -17 -24 -30 -52z"/>
<path d="M2660 2676 c-21 -40 -23 -48 -10 -70 7 -14 17 -26 21 -26 15 0 22 69
9 85 -8 9 -8 15 -2 15 6 0 12 -6 15 -12 4 -10 7 -10 18 0 10 9 11 17 3 29 -18
29 -29 25 -54 -21z"/>
<path d="M2530 2637 c-22 -50 -50 -151 -50 -182 0 -20 55 -84 64 -74 2 2 18
60 35 128 l32 124 -22 24 c-13 12 -26 23 -31 23 -5 0 -18 -19 -28 -43z"/>
<path d="M2695 2580 c-8 -34 2 -107 15 -115 10 -6 40 46 40 70 0 21 -28 75
-39 75 -5 0 -12 -14 -16 -30z"/>
<path d="M2625 2579 c-2 -8 -16 -59 -29 -114 -21 -85 -24 -115 -19 -190 4 -62
11 -97 23 -112 10 -12 20 -19 24 -16 3 4 -1 14 -10 24 -25 28 -21 121 10 214
36 106 44 176 22 194 -13 11 -17 11 -21 0z"/>
<path d="M2306 2555 c-4 -12 3 -15 29 -15 36 0 47 13 19 24 -26 10 -42 7 -48
-9z"/>
<path d="M2390 2490 c0 -5 5 -10 11 -10 5 0 7 5 4 10 -3 6 -8 10 -11 10 -2 0
-4 -4 -4 -10z"/>
<path d="M2641 2381 c-34 -108 -39 -176 -16 -207 12 -16 16 -17 24 -5 7 10 4
22 -10 39 -10 14 -19 31 -19 38 0 7 18 48 41 90 33 63 39 84 34 111 -3 18 -10
33 -14 33 -5 0 -22 -44 -40 -99z"/>
<path d="M2390 2442 c0 -20 8 -32 31 -46 17 -10 33 -16 35 -13 13 12 -11 59
-37 73 -29 14 -29 14 -29 -14z"/>
<path d="M2753 2443 c-20 -8 -15 -23 7 -23 11 0 20 7 20 15 0 15 -6 17 -27 8z"/>
<path d="M2480 2379 c0 -17 11 -33 33 -49 l32 -24 -19 29 c-47 73 -46 72 -46
44z"/>
<path d="M2721 2381 c-17 -30 -13 -36 9 -16 17 15 22 16 36 4 14 -12 16 -11
13 6 -6 28 -45 32 -58 6z"/>
<path d="M2397 2358 c3 -18 16 -60 28 -93 17 -47 27 -61 45 -63 19 -3 22 0 16
15 -4 10 -13 44 -21 76 -14 60 -37 97 -61 97 -10 0 -12 -9 -7 -32z"/>
<path d="M2740 2341 c0 -5 5 -13 10 -16 6 -3 10 -2 10 4 0 5 -4 13 -10 16 -5
3 -10 2 -10 -4z"/>
<path d="M2720 2291 c0 -12 5 -21 10 -21 6 0 10 6 10 14 0 8 -4 18 -10 21 -5
3 -10 -3 -10 -14z"/>
<path d="M2521 2232 c-14 -26 -7 -42 10 -25 6 6 9 19 7 29 -3 17 -5 17 -17 -4z"/>
<path d="M2650 2233 c0 -12 5 -25 10 -28 13 -8 13 15 0 35 -8 12 -10 11 -10
-7z"/>
<path d="M4033 2034 c-3 -8 -1 -20 6 -27 8 -8 11 -4 11 16 0 30 -7 35 -17 11z"/>
<path d="M3210 1250 c-13 -8 -12 -10 3 -10 9 0 17 5 17 10 0 12 -1 12 -20 0z"/>
<path d="M1996 2324 c-8 -20 -8 -113 0 -153 13 -62 24 -29 24 69 0 92 -9 123
-24 84z"/>
<path d="M2990 1985 c-12 -37 -35 -55 -68 -55 -15 0 -19 5 -15 19 3 13 -2 23
-15 30 -29 15 -39 -5 -16 -30 18 -19 18 -21 1 -30 -21 -12 -22 -57 -2 -86 14
-20 99 -83 111 -83 18 0 34 80 34 170 0 104 -10 125 -30 65z"/>
<path d="M2757 1983 c-4 -9 -3 -14 8 -60 4 -17 13 -34 20 -37 22 -8 26 22 9
64 -15 38 -28 49 -37 33z"/>
<path d="M2621 1915 c0 -27 6 -71 14 -98 19 -63 71 -171 90 -187 21 -17 19 -9
-12 57 -34 76 -39 89 -53 148 -7 28 -16 59 -20 70 -5 11 -11 29 -13 40 -3 11
-5 -2 -6 -30z"/>
<path d="M2130 1891 c0 -5 5 -13 10 -16 6 -3 10 -2 10 4 0 5 -4 13 -10 16 -5
3 -10 2 -10 -4z"/>
<path d="M2525 1850 c-28 -45 -33 -119 -11 -179 24 -67 45 -49 65 58 10 49 10
74 1 112 -7 27 -16 49 -21 49 -5 0 -20 -18 -34 -40z"/>
<path d="M2125 1790 c-7 -12 4 -61 20 -80 19 -24 25 -48 12 -53 -15 -5 11
-121 65 -284 45 -140 64 -163 133 -163 49 0 101 16 108 34 4 11 -15 65 -62
171 -10 22 -29 76 -41 120 -13 44 -30 88 -38 97 -8 10 -12 27 -9 39 10 39 -9
67 -55 79 -24 7 -57 20 -74 31 -35 21 -50 24 -59 9z"/>
<path d="M2390 1757 c-29 -14 -33 -45 -8 -60 22 -14 60 18 56 47 -4 25 -17 29
-48 13z"/>
<path d="M2857 1734 c-35 -37 -51 -117 -32 -154 8 -16 19 -32 25 -35 5 -3 10
-15 10 -27 0 -17 -4 -19 -26 -14 -23 6 -24 5 -13 -16 16 -33 71 -88 86 -88 7
0 13 11 13 25 0 14 7 28 15 31 20 8 48 109 42 150 -4 23 -1 34 9 38 18 7 18
57 -1 82 -8 10 -15 16 -15 11 0 -4 -16 0 -36 8 -48 20 -49 19 -77 -11z"/>
<path d="M2580 1654 c-11 -36 -20 -74 -20 -84 0 -22 25 -83 57 -137 30 -52 47
-47 81 20 27 54 28 81 3 115 -10 15 -33 55 -50 90 -17 34 -36 62 -41 62 -5 0
-18 -30 -30 -66z"/>
<path d="M2405 1670 c-19 -21 -19 -23 -2 -88 10 -36 25 -78 35 -92 9 -14 15
-30 14 -36 -1 -6 13 -47 31 -90 31 -72 37 -79 62 -79 19 0 35 9 48 28 l21 27
-39 76 c-22 42 -48 82 -57 88 -11 7 -18 24 -19 46 0 19 -8 58 -18 85 -20 57
-46 69 -76 35z"/>
<path d="M2722 1411 c-44 -71 -45 -82 -18 -120 36 -48 95 -111 106 -111 16 0
90 122 90 149 0 17 -113 131 -130 131 -10 0 -31 -22 -48 -49z"/>
<path d="M2620 1282 c-26 -8 -60 -45 -60 -65 0 -11 10 -36 22 -56 55 -93 82
-130 96 -136 19 -7 92 71 92 100 0 12 -9 30 -21 41 -11 10 -36 40 -55 65 -36
50 -50 59 -74 51z"/>
<path d="M2308 1183 c-13 -17 -4 -41 61 -167 37 -72 64 -111 79 -117 41 -16
172 42 172 77 0 17 -108 201 -124 212 -19 12 -177 8 -188 -5z"/>
</g>
</svg>
