<!--?xml version="1.0" encoding="utf-8"?-->
<!-- Svg Vector Icons : http://www.onlinewebfonts.com/icon -->

<svg version="1.1" xmlns="http://www.w3.org/2000/svg" xmlns:xlink="http://www.w3.org/1999/xlink" x="0px" y="0px" viewBox="0 0 256 256" enable-background="new 0 0 256 256" xml:space="preserve">
<metadata> Svg Vector Icons : http://www.onlinewebfonts.com/icon </metadata>
<g><g><g><path fill="#ffffff" d="M117.3,10.3c-22.9,2.2-44.1,10.7-62.6,25C45.9,42.1,34.4,55,27.7,65.4C24.8,70,19.1,81.7,17,87.3c-2.3,6.3-4.7,15.8-5.9,23.1c-1.4,9.1-1.5,25.8,0,35c2.1,13,5.2,23.1,10.9,34.8c5.9,12.1,12.7,21.4,22.5,31.3c9.9,9.9,19.2,16.6,31.3,22.5c11.7,5.7,22.2,9,34.8,11c9.3,1.4,25.5,1.4,34.8,0c12.7-2,23-5.2,34.8-11c23.3-11.4,42.3-30.4,53.8-53.8c5.7-11.7,9-22.1,11-34.8c1.4-9.3,1.4-26,0-35c-2.1-12.7-5.3-22.9-11-34.5c-5.9-12.1-12.5-21.3-22.3-31.1c-10.1-10.1-19.3-16.8-31.5-22.8c-11.6-5.7-21.8-8.9-34.3-10.8C139,10.1,123.8,9.6,117.3,10.3z M153.1,62.1c3.6,1.8,6.4,4.6,8.2,8.4c1.1,2.2,1.2,3.2,1.2,7.4c0,7.9,0.7,7-22.4,30.2L120.4,128l19.7,19.8c23.1,23.2,22.4,22.3,22.4,30.3c0,4.3-0.1,5.2-1.3,7.5c-1.6,3.4-5.2,7-8.6,8.6c-2.3,1.1-3.2,1.3-7.5,1.3c-8.2,0-6.2,1.6-37.6-29.9c-31.5-31.4-29.9-29.4-29.9-37.6c0-8.1-1.4-6.3,28.7-36.5c14.3-14.4,27-26.9,28.3-27.8c3.5-2.6,6.3-3.4,11.2-3.2C149.5,60.6,150.4,60.8,153.1,62.1z"/></g></g></g>
</svg>