<?xml version="1.0" encoding="utf-8"?>
<!-- Svg Vector Icons : http://www.onlinewebfonts.com/icon -->
<!--DOCTYPE svg PUBLIC "-//W3C//DTD SVG 1.1//EN" "http://www.w3.org/Graphics/SVG/1.1/DTD/svg11.dtd"-->
<svg version="1.1" xmlns="http://www.w3.org/2000/svg" xmlns:xlink="http://www.w3.org/1999/xlink" x="0px" y="0px" viewBox="0 0 256 256" enable-background="new 0 0 256 256" xml:space="preserve">
<metadata> Svg Vector Icons : http://www.onlinewebfonts.com/icon </metadata>
<g><g><g><path fill="#000000" d="M65.7,32c-18,2.9-33.7,12.9-44.1,28c-3.9,5.7-5.8,9.7-8,16.3c-6.8,20.1-3.9,41.1,8,60.6c8.7,14.3,31,36.5,59.1,59c16.4,13.2,26.2,19.9,35.8,24.7c7.1,3.6,10.6,4.4,14.9,3.4c14.5-3.2,50.3-30.2,81.1-60.9c15.8-15.8,22.8-25.2,28-37.7c14.2-33.7,0.4-72.2-31.4-87.6c-8.8-4.3-16.1-6-26.2-6c-9.9-0.1-14.3,0.9-22.6,4.8c-8.6,4.1-14.4,8.4-23.6,17.5l-8.4,8.4l-6.5-7c-14.9-15.7-29.5-23.3-45.6-23.9C72.4,31.5,67.6,31.7,65.7,32z"/></g></g></g>
</svg>