<svg width="14" height="14" viewBox="0 0 14 14" fill="none" xmlns="http://www.w3.org/2000/svg">
<g clip-path="url(#clip0_4148_8160)">
<path d="M7 8.16669C7.9665 8.16669 8.75 7.38318 8.75 6.41669C8.75 5.45019 7.9665 4.66669 7 4.66669C6.0335 4.66669 5.25 5.45019 5.25 6.41669C5.25 7.38318 6.0335 8.16669 7 8.16669Z" fill="#EEEFF2" stroke="#1786F9" stroke-linecap="round" stroke-linejoin="round"/>
<path d="M10.3 9.71678L7.82488 12.1919C7.60612 12.4104 7.30955 12.5332 7.00033 12.5332C6.69112 12.5332 6.39455 12.4104 6.17579 12.1919L3.70013 9.71678C3.04751 9.06412 2.60307 8.2326 2.42303 7.32737C2.24298 6.42213 2.33541 5.48383 2.68863 4.63112C3.04184 3.77841 3.63998 3.04959 4.40741 2.53682C5.17483 2.02406 6.07707 1.75037 7.00004 1.75037C7.92301 1.75037 8.82526 2.02406 9.59268 2.53682C10.3601 3.04959 10.9582 3.77841 11.3115 4.63112C11.6647 5.48383 11.7571 6.42213 11.5771 7.32737C11.397 8.2326 10.9526 9.06412 10.3 9.71678V9.71678Z" stroke="#1786F9" stroke-linecap="round" stroke-linejoin="round"/>
</g>
<defs>
<clipPath id="clip0_4148_8160">
<rect width="14" height="14" fill="white"/>
</clipPath>
</defs>
</svg>
