<!--?xml version="1.0" encoding="utf-8"?-->
<!-- Svg Vector Icons : http://www.onlinewebfonts.com/icon -->

<svg version="1.1" xmlns="http://www.w3.org/2000/svg" xmlns:xlink="http://www.w3.org/1999/xlink" x="0px" y="0px" viewBox="0 0 256 256" enable-background="new 0 0 256 256" xml:space="preserve">
<metadata> Svg Vector Icons : http://www.onlinewebfonts.com/icon </metadata>
<g><g><g><path fill="#ffffff" d="M34.9,25.3c-6.8,1.4-11.8,4.1-16.6,8.9c-15.1,15.2-8.6,39,12.7,46.5l3.7,1.3l92.2,0.1c90.9,0.1,92.3,0.1,95.9-0.8c19-4.7,28.5-23.7,20.2-40.3c-2.4-4.8-7.8-10.1-13-12.7c-7.8-3.9,1.9-3.6-100.8-3.6C54.6,24.7,37.3,24.8,34.9,25.3z"/><path fill="#ffffff" d="M37.6,100.7c-4.3,0.5-6.7,1.2-10.8,3.2C14,110.1,7.6,123.1,10.9,136c1.3,5,3.7,9.1,7.6,12.9c5.1,5,10.7,7.8,17.8,8.9c4.1,0.7,179.4,0.7,183.5,0c7.1-1.2,12.7-3.9,17.8-8.9c14.3-14,9.9-36.5-8.9-45.2c-7.2-3.4,1-3.1-98.6-3.2C80.9,100.4,39.3,100.5,37.6,100.7z"/><path fill="#ffffff" d="M35.3,173.9c-0.6,0.1-2.5,0.6-4.1,1.1c-8.1,2.5-14.6,8-18.3,15.4c-8.4,16.7,2.5,36.4,22.4,40.2c5.1,1,180.5,1,185.6,0c15.3-3,26.1-15.7,25.1-29.8c-0.8-11.8-8.3-21.1-20.7-25.7l-3.4-1.2l-92.7,0C78.2,173.7,36,173.7,35.3,173.9z"/></g></g></g>
</svg>