<!--?xml version="1.0" encoding="utf-8"?-->
<!-- Svg Vector Icons : http://www.onlinewebfonts.com/icon -->

<svg version="1.1" xmlns="http://www.w3.org/2000/svg" xmlns:xlink="http://www.w3.org/1999/xlink" x="0px" y="0px" viewBox="0 0 256 256" enable-background="new 0 0 256 256" xml:space="preserve">
<metadata> Svg Vector Icons : http://www.onlinewebfonts.com/icon </metadata>
<g><g><g><path fill="#ffffff" d="M15.6,46.4c-4,2-6.4,7.4-5.2,11.8c0.5,1.8,1.8,4,2.8,5c8.3,7.9,21.5-1.3,17.1-11.7C28,46,21.2,43.6,15.6,46.4z"/><path fill="#ffffff" d="M63.3,55.9v3.4h91.3H246v-3.4v-3.4h-91.3H63.3L63.3,55.9L63.3,55.9z"/><path fill="#ffffff" d="M17.2,118c-5.4,2.2-8.4,7.9-6.7,12.9c1.2,3.6,5,6.9,8.8,7.6c5.6,1,12.2-4.6,12.2-10.6c0-3.3-2.8-7.7-6-9.4C22.4,116.9,20.3,116.7,17.2,118z"/><path fill="#ffffff" d="M63.3,128v3.4h91.3H246V128v-3.4h-91.3H63.3L63.3,128L63.3,128z"/><path fill="#ffffff" d="M17.7,190c-3.5,1.1-6.3,4-7.3,7.8c-0.8,2.7-0.6,3.8,0.9,6.9c4,8.3,15.5,8.1,19-0.3c2.3-5.7-0.2-11.6-6.2-14.1C21.2,189,21.1,189,17.7,190z"/><path fill="#ffffff" d="M63.3,200v3.4h91.3H246V200v-3.4h-91.3H63.3L63.3,200L63.3,200z"/></g></g></g>
</svg>