<?xml version="1.0" encoding="utf-8"?>
<!-- Svg Vector Icons : http://www.onlinewebfonts.com/icon -->
<!--DOCTYPE svg PUBLIC "-//W3C//DTD SVG 1.1//EN" "http://www.w3.org/Graphics/SVG/1.1/DTD/svg11.dtd"-->
<svg version="1.1" xmlns="http://www.w3.org/2000/svg" xmlns:xlink="http://www.w3.org/1999/xlink" x="0px" y="0px" viewBox="0 0 256 256" enable-background="new 0 0 256 256" xml:space="preserve">
<metadata> Svg Vector Icons : http://www.onlinewebfonts.com/icon </metadata>
<g><g><g><path fill="#000000" d="M119.8,10.6c-11.3,1.8-23.1,8.3-30.4,16.8c-3.6,4.1-5.1,6.4-7.4,10.9c-11.6,23.3-4.3,51.3,17.2,66.1c5.7,3.9,14.6,7.2,22.2,8.4c11.8,1.7,25.8-1.6,35.7-8.4c11.7-8,19.9-21,22-34.9c3-19.7-5.5-39.4-22-50.6C146.7,11.7,132.7,8.6,119.8,10.6z"/><path fill="#000000" d="M115.4,136c-9.9,0.9-22.6,3.6-31.6,6.6c-2.7,0.9-7.8,3.1-11.3,4.8c-24.1,11.7-40.8,31-46,53.1c-0.8,3.3-1,6-1.2,16.6c-0.2,13.4,0,16.6,1.8,20.1c1.4,2.8,4.8,6.1,7.7,7.5l2.6,1.3h90.7h90.7l2.6-1.3c3.3-1.6,6.9-5.5,8.3-9c1-2.5,1.1-3,1.1-16.5c0-15-0.3-17.3-2.9-25c-2.7-8.2-8-17.1-14.5-24.6c-12.4-14.2-30.9-25-51.2-30C147.2,136,130.7,134.7,115.4,136z"/></g></g></g>
</svg>