<?xml version="1.0" encoding="utf-8"?>
<!-- Svg Vector Icons : http://www.onlinewebfonts.com/icon -->
<!--DOCTYPE svg PUBLIC "-//W3C//DTD SVG 1.1//EN" "http://www.w3.org/Graphics/SVG/1.1/DTD/svg11.dtd"-->
<svg version="1.1" xmlns="http://www.w3.org/2000/svg" xmlns:xlink="http://www.w3.org/1999/xlink" x="0px" y="0px" viewBox="0 0 256 256" enable-background="new 0 0 256 256" xml:space="preserve">
<metadata> Svg Vector Icons : http://www.onlinewebfonts.com/icon </metadata>
<g><g><path fill="#000000" d="M230.3,81.3c-8.5,0-15.4-6.9-15.4-15.4V37.1H185c-8.5,0-15.4-6.9-15.4-15.4c0-8.5,6.9-15.4,15.4-15.4h44.2c0.2,0,0.3,0,0.5,0c0.2,0,0.3,0,0.5,0c8.5,0,15.4,6.9,15.4,15.4v44.2C245.7,74.4,238.8,81.3,230.3,81.3z M72,37.1H42.2v28.8c0,8.5-6.9,15.4-15.4,15.4c-8.5,0-15.4-6.9-15.4-15.4V21.7c0-8.5,6.9-15.4,15.4-15.4c0.2,0,0.3,0,0.5,0c0.2,0,0.3,0,0.5,0H72c8.5,0,15.4,6.9,15.4,15.4C87.4,30.2,80.5,37.1,72,37.1z M23.4,114.7h209.2c7.4,0,13.4,6,13.4,13.4c0,7.4-6,13.4-13.4,13.4H23.4c-7.4,0-13.4-6-13.4-13.4C10,120.7,16,114.7,23.4,114.7z M26.7,174.7c8.5,0,15.4,6.9,15.4,15.4v28.8H72c8.5,0,15.4,6.9,15.4,15.4c0,8.5-6.9,15.4-15.4,15.4H27.8c-0.2,0-0.3,0-0.5,0c-0.2,0-0.3,0-0.5,0c-8.5,0-15.4-6.9-15.4-15.4v-44.2C11.3,181.6,18.2,174.7,26.7,174.7z M185,218.9h29.9v-28.8c0-8.5,6.9-15.4,15.4-15.4c8.5,0,15.4,6.9,15.4,15.4v44.2c0,8.5-6.9,15.4-15.4,15.4c-0.2,0-0.3,0-0.5,0c-0.2,0-0.3,0-0.5,0H185c-8.5,0-15.4-6.9-15.4-15.4C169.6,225.8,176.6,218.9,185,218.9z"/></g></g>
</svg>