<?xml version="1.0" encoding="utf-8"?>
<!-- Svg Vector Icons : http://www.onlinewebfonts.com/icon -->
<!--DOCTYPE svg PUBLIC "-//W3C//DTD SVG 1.1//EN" "http://www.w3.org/Graphics/SVG/1.1/DTD/svg11.dtd"-->
<svg version="1.1" xmlns="http://www.w3.org/2000/svg" xmlns:xlink="http://www.w3.org/1999/xlink" x="0px" y="0px" viewBox="0 0 256 256" enable-background="new 0 0 256 256" xml:space="preserve">
<metadata> Svg Vector Icons : http://www.onlinewebfonts.com/icon </metadata>
<g><g><path fill="#000000" d="M246,124.2"/><path fill="#000000" d="M237.2,133.3H15.3c-2.9,0-5.3-2.4-5.3-5.3s2.4-5.3,5.3-5.3h221.9c2.9,0,5.3,2.4,5.3,5.3C242.5,130.9,240.1,133.3,237.2,133.3z M216.1,64.6c0-21.3-5.1-26.4-26.4-26.4h-21.1V27.6h31.7c14.6,0,26.4,11.8,26.4,26.4v31.7H216L216.1,64.6L216.1,64.6z M36.4,64.6v21.1H25.8V54c0-14.6,11.8-26.4,26.4-26.4H84v10.6H62.8C41.8,38.2,36.4,43.3,36.4,64.6z M36.4,191.4c0,21,5.4,26.4,26.4,26.4H84v10.6H52.3c-14.6,0-26.4-11.8-26.4-26.4v-31.7h10.6V191.4L36.4,191.4z M216.1,191.4v-21.1h10.6V202c0,14.6-11.8,26.4-26.4,26.4h-31.7v-10.5h21.1C210.9,217.8,216.1,212.4,216.1,191.4z"/></g></g>
</svg>