<?xml version="1.0" encoding="utf-8"?>
<!-- Svg Vector Icons : http://www.onlinewebfonts.com/icon -->
<!DOCTYPE svg PUBLIC "-//W3C//DTD SVG 1.1//EN"> <!--"http://www.w3.org/Graphics/SVG/1.1/DTD/svg11.dtd"-->
<svg version="1.1" xmlns="http://www.w3.org/2000/svg" xmlns:xlink="http://www.w3.org/1999/xlink" x="0px" y="0px" viewBox="0 0 256 256" enable-background="new 0 0 256 256" xml:space="preserve">
<metadata> Svg Vector Icons : http://www.onlinewebfonts.com/icon </metadata>
<g><g><g><path fill="#000000" d="M117.5,11c-13.2,1.8-23.7,6.6-32.1,14.6c-7.8,7.5-12.5,16.5-15,29c-0.9,4.3-1,6.7-1.1,14.4c0,12.1,1.2,20.6,4.7,31.9c4.6,15.3,10.8,27,21.1,39.5l1.2,1.4l-9.5,4.1C31.5,169.6,18.2,180,12.6,204c-1.4,6.1-2.1,13.9-2.4,27.7l-0.3,14h118h118v-8.9c0-22.2-2-35.7-6.8-45.2c-4.7-9.4-13.3-17.4-27.5-25.6c-8.8-5.1-28.7-14.4-47.5-22.3l-4.2-1.8l1.1-1.4c6.3-7.7,9.9-13.1,13.5-20.5c13.9-27.5,16.4-60.6,6.2-80.9c-7-14-20.3-23.8-36.7-27.1C135.8,10.2,125.6,9.9,117.5,11z"/></g></g></g>
    </svg>